<svg width="82" height="81" viewBox="0 0 82 81" fill="none" xmlns="http://www.w3.org/2000/svg">
<rect width="81.2222" height="80.1096" rx="40.0548" fill="#1F2937"/>
<path fill-rule="evenodd" clip-rule="evenodd" d="M40.6114 78.997C62.1186 78.997 79.5536 61.562 79.5536 40.0548C79.5536 18.5476 62.1186 1.11263 40.6114 1.11263C19.1043 1.11263 1.66927 18.5476 1.66927 40.0548C1.66927 61.562 19.1043 78.997 40.6114 78.997ZM40.6114 80.1096C62.7331 80.1096 80.6662 62.1765 80.6662 40.0548C80.6662 17.9331 62.7331 0 40.6114 0C18.4898 0 0.556641 17.9331 0.556641 40.0548C0.556641 62.1765 18.4898 80.1096 40.6114 80.1096Z" fill="#E8CF82"/>
<path fill-rule="evenodd" clip-rule="evenodd" d="M40.6111 72.8775C58.7386 72.8775 73.4338 58.1823 73.4338 40.0548C73.4338 21.9273 58.7386 7.23211 40.6111 7.23211C22.4836 7.23211 7.78841 21.9273 7.78841 40.0548C7.78841 58.1823 22.4836 72.8775 40.6111 72.8775ZM40.6111 73.9901C59.353 73.9901 74.5464 58.7967 74.5464 40.0548C74.5464 21.3128 59.353 6.11948 40.6111 6.11948C21.8691 6.11948 6.67578 21.3128 6.67578 40.0548C6.67578 58.7967 21.8691 73.9901 40.6111 73.9901Z" fill="#E8CF82"/>
<path fill-rule="evenodd" clip-rule="evenodd" d="M40.6111 67.8706C55.9733 67.8706 68.4269 55.4171 68.4269 40.0548C68.4269 24.6925 55.9733 12.239 40.6111 12.239C25.2488 12.239 12.7953 24.6925 12.7953 40.0548C12.7953 55.4171 25.2488 67.8706 40.6111 67.8706ZM40.6111 68.9833C56.5878 68.9833 69.5395 56.0315 69.5395 40.0548C69.5395 24.0781 56.5878 11.1263 40.6111 11.1263C24.6343 11.1263 11.6826 24.0781 11.6826 40.0548C11.6826 56.0315 24.6343 68.9833 40.6111 68.9833Z" fill="#E8CF82"/>
<mask id="mask0_5265_103" style="mask-type:alpha" maskUnits="userSpaceOnUse" x="9" y="10" width="62" height="62">
<path fill-rule="evenodd" clip-rule="evenodd" d="M40.0554 66.758C54.4959 66.758 66.2023 55.0516 66.2023 40.6111C66.2023 26.1706 54.4959 14.4642 40.0554 14.4642C25.6149 14.4642 13.9085 26.1706 13.9085 40.6111C13.9085 55.0516 25.6149 66.758 40.0554 66.758ZM40.0554 71.2085C56.9539 71.2085 70.6528 57.5096 70.6528 40.6111C70.6528 23.7126 56.9539 10.0137 40.0554 10.0137C23.1569 10.0137 9.45801 23.7126 9.45801 40.6111C9.45801 57.5096 23.1569 71.2085 40.0554 71.2085Z" fill="#E8CF82"/>
</mask>
<g mask="url(#mask0_5265_103)">
<path fill-rule="evenodd" clip-rule="evenodd" d="M40.0553 77.8843L40.0553 3.33789L44.5059 3.33789L44.5059 77.8843L40.0553 77.8843Z" fill="#E8CF82"/>
<path fill-rule="evenodd" clip-rule="evenodd" d="M2.78268 40.6111H77.3291V45.0616H2.78268V40.6111Z" fill="#E8CF82"/>
</g>
<mask id="mask1_5265_103" style="mask-type:alpha" maskUnits="userSpaceOnUse" x="10" y="8" width="62" height="63">
<path fill-rule="evenodd" clip-rule="evenodd" d="M41.1677 65.6454C55.6082 65.6454 67.3146 53.939 67.3146 39.4985C67.3146 25.058 55.6082 13.3516 41.1677 13.3516C26.7272 13.3516 15.0208 25.058 15.0208 39.4985C15.0208 53.939 26.7272 65.6454 41.1677 65.6454ZM41.1677 70.0959C58.0662 70.0959 71.7651 56.397 71.7651 39.4985C71.7651 22.6 58.0662 8.90106 41.1677 8.90106C24.2692 8.90106 10.5703 22.6 10.5703 39.4985C10.5703 56.397 24.2692 70.0959 41.1677 70.0959Z" fill="#E8CF82"/>
</mask>
<g mask="url(#mask1_5265_103)">
<path fill-rule="evenodd" clip-rule="evenodd" d="M41.1676 76.7717L41.1676 2.22525L45.6182 2.22525L45.6182 76.7717L41.1676 76.7717Z" fill="#E8CF82"/>
<path fill-rule="evenodd" clip-rule="evenodd" d="M3.89499 39.4985H78.4414V43.949H3.89499V39.4985Z" fill="#E8CF82"/>
</g>
<mask id="mask2_5265_103" style="mask-type:alpha" maskUnits="userSpaceOnUse" x="9" y="10" width="62" height="62">
<path fill-rule="evenodd" clip-rule="evenodd" d="M40.0554 66.758C54.4959 66.758 66.2023 55.0516 66.2023 40.6111C66.2023 26.1706 54.4959 14.4642 40.0554 14.4642C25.6149 14.4642 13.9085 26.1706 13.9085 40.6111C13.9085 55.0516 25.6149 66.758 40.0554 66.758ZM40.0554 71.2085C56.9539 71.2085 70.6528 57.5096 70.6528 40.6111C70.6528 23.7126 56.9539 10.0137 40.0554 10.0137C23.1569 10.0137 9.45801 23.7126 9.45801 40.6111C9.45801 57.5096 23.1569 71.2085 40.0554 71.2085Z" fill="#E8CF82"/>
</mask>
<g mask="url(#mask2_5265_103)">
<path fill-rule="evenodd" clip-rule="evenodd" d="M41.724 80.6659L41.724 6.11948L42.2803 6.11948L42.2803 80.6659L41.724 80.6659Z" fill="#1F2937"/>
<path fill-rule="evenodd" clip-rule="evenodd" d="M4.45163 43.3927H78.998V43.949H4.45163V43.3927Z" fill="#1F2937"/>
</g>
<mask id="mask3_5265_103" style="mask-type:alpha" maskUnits="userSpaceOnUse" x="10" y="8" width="62" height="63">
<path fill-rule="evenodd" clip-rule="evenodd" d="M41.1677 65.6454C55.6082 65.6454 67.3146 53.939 67.3146 39.4985C67.3146 25.058 55.6082 13.3516 41.1677 13.3516C26.7272 13.3516 15.0208 25.058 15.0208 39.4985C15.0208 53.939 26.7272 65.6454 41.1677 65.6454ZM41.1677 70.0959C58.0662 70.0959 71.7651 56.397 71.7651 39.4985C71.7651 22.6 58.0662 8.90106 41.1677 8.90106C24.2692 8.90106 10.5703 22.6 10.5703 39.4985C10.5703 56.397 24.2692 70.0959 41.1677 70.0959Z" fill="#E8CF82"/>
</mask>
<g mask="url(#mask3_5265_103)">
<path fill-rule="evenodd" clip-rule="evenodd" d="M42.8363 79.5533L42.8363 5.00684L43.3926 5.00684L43.3926 79.5533L42.8363 79.5533Z" fill="#1F2937"/>
<path fill-rule="evenodd" clip-rule="evenodd" d="M5.56393 42.28H80.1104V42.8364H5.56393V42.28Z" fill="#1F2937"/>
</g>
<path fill-rule="evenodd" clip-rule="evenodd" d="M42.7869 21.6964L43.0099 21.8715C43.5864 22.3244 44.4266 23.3153 44.8992 24.4289C45.1368 24.9888 45.2958 25.6132 45.2562 26.2358C45.234 26.5844 45.15 26.9214 44.9945 27.2348C45.3621 27.2475 45.7713 27.2698 46.1664 27.3053C46.5196 27.337 46.8667 27.3798 47.165 27.4372C47.4297 27.4881 47.6879 27.5559 47.8782 27.6555C48.7586 27.8618 50.1247 28.1458 51.4118 28.3392C52.066 28.4374 52.6948 28.5115 53.2267 28.5408C53.6562 28.5644 53.9993 28.557 54.237 28.5198C54.4312 28.0554 54.8138 27.5712 55.3197 27.3083C55.9424 26.9846 56.7263 27.0087 57.5323 27.7209L57.615 27.794L57.6513 27.9081C57.8545 28.5463 57.9278 29.5361 57.4234 30.3789C56.9132 31.2316 55.8894 31.8062 54.1357 31.8062C52.3654 31.8062 50.5319 31.3797 48.8974 30.9995C48.5323 30.9146 48.1772 30.832 47.835 30.757C46.8856 30.5489 46.04 30.3993 45.329 30.3993C44.8503 30.3993 44.4582 30.4675 44.1463 30.6115C44.354 30.8613 44.5388 31.1855 44.6173 31.5741C44.7341 32.1522 44.5985 32.77 44.1324 33.3724C44.2082 33.4255 44.2827 33.4823 44.3538 33.5422C44.564 33.719 44.7866 33.9575 44.8975 34.2536C44.9562 34.4101 44.9869 34.5921 44.9583 34.7865C44.9296 34.9812 44.8467 35.1524 44.7291 35.2974C44.5444 35.5252 44.2575 35.7097 43.8751 35.8642V40.6656C43.9267 40.6864 43.9785 40.709 44.0289 40.7333C44.1611 40.797 44.319 40.8887 44.4351 41.0165C44.4942 41.0815 44.5669 41.1824 44.6009 41.3226C44.6392 41.4809 44.6168 41.6424 44.5454 41.7785C44.5223 41.8225 44.4954 41.8617 44.4663 41.8965C44.6208 42.1098 44.7579 42.3691 44.8196 42.6572C44.8792 42.9354 44.8687 43.2463 44.7296 43.5464C44.6693 43.6766 44.5888 43.7961 44.4894 43.9056C44.553 44.0105 44.6022 44.1425 44.6088 44.302C44.6198 44.565 44.5106 44.7942 44.3573 44.9795C44.2398 45.1215 44.0796 45.2595 43.8751 45.3961V50.3169C44.0139 50.4124 44.1558 50.5255 44.2851 50.6524C44.4705 50.8344 44.6611 51.0752 44.7544 51.3658C44.8582 51.6891 44.831 52.0484 44.611 52.3649C44.498 52.5275 44.341 52.6689 44.1436 52.793L45.4369 54.3167L45.3586 54.4089C46.0962 54.5069 46.8589 54.6335 47.5453 54.7864C48.0055 54.8889 48.4363 55.0043 48.8044 55.1325C49.1666 55.2587 49.4919 55.4052 49.7257 55.5801C49.9305 55.7332 50.2227 56.0327 50.1386 56.4804C50.1013 56.6793 49.9965 56.8348 49.8832 56.9526C49.7683 57.0721 49.6199 57.1789 49.4473 57.2776C48.7694 57.6652 47.4693 58.0632 45.3485 58.4796L45.2322 57.6572C47.3572 57.24 48.5632 56.8564 49.1384 56.5275C49.2729 56.4506 49.3579 56.3848 49.4082 56.3344C49.3928 56.3203 49.3726 56.3035 49.3465 56.284C49.197 56.1722 48.9474 56.0517 48.6038 55.932C48.2661 55.8144 47.8603 55.705 47.4138 55.6056C46.5213 55.4068 45.4862 55.252 44.5497 55.1486L43.8003 55.0658L44.4361 54.3167L42.8663 52.4671L43.4094 52.2538C43.8104 52.0963 43.9914 51.9404 44.0635 51.8367C44.1133 51.765 44.1126 51.7231 44.0926 51.6608C44.0621 51.5658 43.9784 51.4366 43.8321 51.2929C43.6916 51.155 43.5212 51.031 43.363 50.9378L43.1674 50.8226V44.8881L43.363 44.7729C43.6288 44.6163 43.7755 44.4882 43.8506 44.3975C43.8636 44.3818 43.8736 44.3683 43.8812 44.3571C43.8525 44.3338 43.8113 44.3095 43.7632 44.2906L42.9528 43.9724L43.7168 43.5223C43.9588 43.3798 44.0639 43.2432 44.1085 43.147C44.1493 43.0589 44.1565 42.9686 44.1335 42.8612C44.0801 42.6119 43.8732 42.3303 43.6628 42.1443L43.1226 41.667L43.6547 41.458C43.5816 41.4283 43.5059 41.4023 43.4354 41.3815L43.1674 41.3026V35.2435L43.4241 35.1571C43.9022 34.9962 44.1265 34.8336 44.2174 34.7216C44.2572 34.6725 44.2607 34.6463 44.261 34.644C44.2615 34.6412 44.2637 34.6263 44.2502 34.5903C44.2166 34.5008 44.1194 34.3694 43.9425 34.2206C43.7746 34.0793 43.5712 33.9524 43.3819 33.8568L42.8391 33.5827L43.3002 33.1481C43.9381 32.5468 43.9907 32.0729 43.9289 31.7673C43.8563 31.4079 43.5905 31.0907 43.3392 30.913L42.9029 30.6046L43.3002 30.2301C43.8351 29.7259 44.5515 29.5655 45.329 29.5655C46.1107 29.5655 47.0121 29.7286 47.9644 29.9373C48.3226 30.0159 48.6889 30.1009 49.0612 30.1874C50.6935 30.5664 52.4418 30.9725 54.1357 30.9725C55.7786 30.9725 56.5238 30.4354 56.8451 29.8985C57.1467 29.3945 57.1423 28.779 57.0217 28.3151C56.4501 27.8522 55.9671 27.883 55.6053 28.0711C55.1957 28.284 54.9117 28.7142 54.8252 29.02L54.7637 29.2371L54.5753 29.2926C54.2374 29.3921 53.7404 29.4036 53.1938 29.3736C52.6355 29.3429 51.9862 29.2659 51.3223 29.1662C49.9942 28.9666 48.5881 28.673 47.6976 28.4632L47.6512 28.4522L47.6088 28.4273C47.5192 28.3745 47.3329 28.3142 47.0511 28.26C46.7803 28.208 46.4552 28.1674 46.1126 28.1366C45.4278 28.0751 44.694 28.0544 44.2289 28.0544H43.2202L44.0079 27.3121C44.3754 26.9656 44.5249 26.5762 44.5505 26.1734C44.5772 25.7538 44.4709 25.284 44.2662 24.8017C43.9119 23.9668 43.306 23.1953 42.8348 22.7535C41.799 23.8757 41.3712 24.9546 41.2614 25.7746C41.2025 26.2136 41.2348 26.575 41.3083 26.8349C41.3844 27.1038 41.4919 27.2266 41.5566 27.2647L41.3984 28.0544H39.2976C38.3329 28.1978 37.2923 28.4368 36.2558 28.6748C35.7913 28.7815 35.3276 28.888 34.8719 28.9856C34.1388 29.1427 33.4297 29.2756 32.7887 29.3425C32.1516 29.4089 31.5596 29.4127 31.0684 29.2969L31.2071 28.4794C31.6005 28.5721 32.1141 28.5758 32.7264 28.512C33.3348 28.4486 34.0188 28.321 34.7453 28.1654C35.1809 28.0721 35.633 27.9682 36.0914 27.863C37.1472 27.6206 38.236 27.3705 39.2316 27.2239L39.2535 27.2207H40.675C40.6614 27.1806 40.6487 27.1398 40.637 27.0985C40.5226 26.694 40.4885 26.1956 40.5624 25.6446C40.7107 24.5376 41.2949 23.2031 42.5834 21.9019L42.7869 21.6964ZM43.9634 41.3102C43.9637 41.3098 43.9639 41.3096 43.9639 41.3096ZM49.4552 56.3888C49.4548 56.3888 49.4527 56.3858 49.4505 56.3799C49.4546 56.3858 49.4557 56.3888 49.4552 56.3888Z" fill="#E8CF82"/>
<path fill-rule="evenodd" clip-rule="evenodd" d="M42.6184 21.6964L42.3954 21.8715C41.8189 22.3244 40.9787 23.3153 40.5061 24.4289C40.2685 24.9888 40.1095 25.6132 40.1491 26.2358C40.1713 26.5844 40.2553 26.9214 40.4108 27.2348C40.0431 27.2475 39.6339 27.2698 39.2389 27.3053C38.8857 27.337 38.5386 27.3798 38.2402 27.4372C37.9755 27.4881 37.7173 27.5559 37.527 27.6555C36.6466 27.8618 35.2806 28.1458 33.9934 28.3392C33.3393 28.4374 32.7105 28.5115 32.1785 28.5408C31.7491 28.5644 31.406 28.557 31.1683 28.5198C30.9741 28.0554 30.5915 27.5712 30.0856 27.3083C29.4629 26.9846 28.679 27.0087 27.873 27.7209L27.7903 27.794L27.754 27.9081C27.5508 28.5463 27.4775 29.5361 27.9818 30.3789C28.492 31.2316 29.5159 31.8062 31.2696 31.8062C33.0398 31.8062 34.8734 31.3797 36.5079 30.9995C36.8729 30.9146 37.228 30.832 37.5703 30.757C38.5197 30.5489 39.3653 30.3993 40.0762 30.3993C40.555 30.3993 40.9471 30.4675 41.2589 30.6115C41.0513 30.8613 40.8665 31.1855 40.788 31.5741C40.6712 32.1522 40.8068 32.77 41.2729 33.3724C41.1971 33.4255 41.1226 33.4823 41.0515 33.5422C40.8413 33.719 40.6187 33.9575 40.5077 34.2536C40.4491 34.4101 40.4184 34.5921 40.447 34.7865C40.4757 34.9812 40.5586 35.1524 40.6762 35.2974C40.8608 35.5252 41.1477 35.7097 41.5302 35.8642V40.6656C41.4785 40.6864 41.4268 40.709 41.3763 40.7333C41.2442 40.797 41.0862 40.8887 40.9702 41.0165C40.9111 41.0815 40.8384 41.1824 40.8044 41.3226C40.766 41.4809 40.7885 41.6424 40.8599 41.7785C40.883 41.8225 40.9099 41.8617 40.9389 41.8965C40.7845 42.1098 40.6474 42.3691 40.5856 42.6572C40.5261 42.9354 40.5366 43.2463 40.6757 43.5464C40.7359 43.6766 40.8164 43.7961 40.9158 43.9056C40.8523 44.0105 40.8031 44.1425 40.7965 44.302C40.7855 44.565 40.8947 44.7942 41.048 44.9795C41.1655 45.1215 41.3257 45.2595 41.5302 45.3961V50.3169C41.3914 50.4124 41.2494 50.5255 41.1202 50.6524C40.9348 50.8344 40.7442 51.0752 40.6509 51.3658C40.547 51.6891 40.5743 52.0484 40.7943 52.3649C40.9073 52.5275 41.0642 52.6689 41.2616 52.793L39.9684 54.3167L40.0466 54.4089C39.3091 54.5069 38.5463 54.6335 37.86 54.7864C37.3998 54.8889 36.969 55.0043 36.6009 55.1325C36.2387 55.2587 35.9134 55.4052 35.6796 55.5801C35.4747 55.7332 35.1826 56.0327 35.2666 56.4804C35.304 56.6793 35.4087 56.8348 35.5221 56.9526C35.637 57.0721 35.7854 57.1789 35.9579 57.2776C36.6359 57.6652 37.936 58.0632 40.0568 58.4796L40.1731 57.6572C38.0481 57.24 36.8421 56.8564 36.2669 56.5275C36.1324 56.4506 36.0474 56.3848 35.9971 56.3344C36.0125 56.3203 36.0326 56.3035 36.0588 56.284C36.2082 56.1722 36.4579 56.0517 36.8015 55.932C37.1392 55.8144 37.545 55.705 37.9914 55.6056C38.884 55.4068 39.9191 55.252 40.8556 55.1486L41.605 55.0658L40.9691 54.3167L42.539 52.4671L41.9959 52.2538C41.5948 52.0963 41.4139 51.9404 41.3418 51.8367C41.292 51.765 41.2927 51.7231 41.3127 51.6608C41.3432 51.5658 41.4268 51.4366 41.5732 51.2929C41.7137 51.155 41.884 51.031 42.0422 50.9378L42.2378 50.8226V44.8881L42.0422 44.7729C41.7765 44.6163 41.6297 44.4882 41.5547 44.3975C41.5417 44.3818 41.5317 44.3683 41.5241 44.3571C41.5528 44.3338 41.594 44.3095 41.6421 44.2906L42.4524 43.9724L41.6884 43.5223C41.4465 43.3798 41.3414 43.2432 41.2968 43.147C41.256 43.0589 41.2488 42.9686 41.2718 42.8612C41.3252 42.6119 41.5321 42.3303 41.7425 42.1443L42.2827 41.667L41.7506 41.458C41.8237 41.4283 41.8994 41.4023 41.9698 41.3815L42.2378 41.3026V35.2435L41.9812 35.1571C41.5031 34.9962 41.2788 34.8336 41.1879 34.7216C41.1481 34.6725 41.1446 34.6463 41.1442 34.644C41.1438 34.6412 41.1416 34.6263 41.1551 34.5903C41.1886 34.5008 41.2859 34.3694 41.4628 34.2206C41.6307 34.0793 41.8341 33.9524 42.0234 33.8568L42.5661 33.5827L42.105 33.1481C41.4671 32.5468 41.4146 32.0729 41.4764 31.7673C41.549 31.4079 41.8148 31.0907 42.0661 30.913L42.5024 30.6046L42.105 30.2301C41.5702 29.7259 40.8537 29.5655 40.0762 29.5655C39.2946 29.5655 38.3932 29.7286 37.4408 29.9373C37.0826 30.0159 36.7164 30.1009 36.344 30.1874C34.7118 30.5664 32.9634 30.9725 31.2696 30.9725C29.6267 30.9725 28.8814 30.4354 28.5602 29.8985C28.2586 29.3945 28.263 28.779 28.3836 28.3151C28.9552 27.8522 29.4382 27.883 29.8 28.0711C30.2096 28.284 30.4936 28.7142 30.5801 29.02L30.6415 29.2371L30.83 29.2926C31.1679 29.3921 31.6649 29.4036 32.2115 29.3736C32.7697 29.3429 33.4191 29.2659 34.0829 29.1662C35.4111 28.9666 36.8171 28.673 37.7076 28.4632L37.7541 28.4522L37.7965 28.4273C37.8861 28.3745 38.0724 28.3142 38.3542 28.26C38.6249 28.208 38.95 28.1674 39.2927 28.1366C39.9775 28.0751 40.7112 28.0544 41.1764 28.0544H42.185L41.3974 27.3121C41.0299 26.9656 40.8804 26.5762 40.8548 26.1734C40.828 25.7538 40.9344 25.284 41.139 24.8017C41.4934 23.9668 42.0993 23.1953 42.5704 22.7535C43.6063 23.8757 44.034 24.9546 44.1439 25.7746C44.2027 26.2136 44.1705 26.575 44.0969 26.8349C44.0208 27.1038 43.9134 27.2266 43.8487 27.2647L44.0069 28.0544H46.1077C47.0724 28.1978 48.113 28.4368 49.1494 28.6748C49.614 28.7815 50.0777 28.888 50.5334 28.9856C51.2664 29.1427 51.9756 29.2756 52.6165 29.3425C53.2536 29.4089 53.8457 29.4127 54.3369 29.2969L54.1981 28.4794C53.8048 28.5721 53.2912 28.5758 52.6789 28.512C52.0705 28.4486 51.3865 28.321 50.66 28.1654C50.2244 28.0721 49.7722 27.9682 49.3139 27.863C48.2581 27.6206 47.1692 27.3705 46.1737 27.2239L46.1518 27.2207H44.7302C44.7439 27.1806 44.7566 27.1398 44.7682 27.0985C44.8827 26.694 44.9167 26.1956 44.8429 25.6446C44.6945 24.5376 44.1104 23.2031 42.8219 21.9019L42.6184 21.6964ZM41.4419 41.3102C41.4415 41.3098 41.4414 41.3096 41.4414 41.3096ZM35.95 56.3888C35.9505 56.3888 35.9526 56.3858 35.9548 56.3799C35.9507 56.3858 35.9496 56.3888 35.95 56.3888Z" fill="#E8CF82"/>
<path d="M41.4347 27.4598V28.3499C40.4259 28.3796 39.6545 28.4982 39.1205 28.7059C38.6161 28.8839 38.2749 29.24 38.0968 29.7741C37.9188 30.2784 37.8298 31.0795 37.8298 32.1773V54.608C37.8298 55.5575 37.904 56.2844 38.0523 56.7888C38.2304 57.2635 38.5419 57.5751 38.9869 57.7234C39.432 57.8718 40.0699 57.9459 40.9007 57.9459H43.4375C44.5946 57.9459 45.6034 57.7382 46.4638 57.3229C47.3539 56.9075 48.1254 56.2992 48.7781 55.4981C49.4309 54.697 49.9649 53.7179 50.3803 52.5608C50.7957 51.374 51.0924 50.0388 51.2704 48.5553H52.294C52.205 49.5344 52.1605 50.8102 52.1605 52.3828C52.1605 53.0355 52.1754 53.9701 52.205 55.1866C52.2644 56.4031 52.3534 57.6641 52.4721 58.9696C50.9589 58.9102 49.2528 58.8805 47.3539 58.8805C45.455 58.8509 43.7638 58.836 42.2803 58.836C41.5683 58.836 40.6633 58.836 39.5655 58.836C38.4677 58.836 37.2661 58.8509 35.9606 58.8805C34.6848 58.8805 33.3793 58.8954 32.0441 58.925C30.7386 58.925 29.4925 58.9399 28.3057 58.9696V58.0794C29.2848 58.0201 30.0117 57.9014 30.4864 57.7234C30.9908 57.5454 31.3172 57.1893 31.4655 56.6553C31.6436 56.1212 31.7326 55.3201 31.7326 54.252V32.1773C31.7326 31.0795 31.6436 30.2784 31.4655 29.7741C31.3172 29.24 30.9908 28.8839 30.4864 28.7059C30.0117 28.4982 29.2848 28.3796 28.3057 28.3499V27.4598C29.0474 27.4894 29.9969 27.5191 31.154 27.5488C32.3111 27.5785 33.5573 27.5933 34.8925 27.5933C36.1089 27.5933 37.3106 27.5785 38.4974 27.5488C39.6842 27.5191 40.6633 27.4894 41.4347 27.4598Z" fill="#E8CF82"/>
<path fill-rule="evenodd" clip-rule="evenodd" d="M41.9907 26.8817V28.8901L41.4508 28.906C40.4648 28.935 39.768 29.0509 39.3218 29.2244L39.3136 29.2276L39.3053 29.2305C38.9724 29.348 38.7513 29.5689 38.6243 29.95L38.6227 29.9546L38.6211 29.9592C38.4763 30.3695 38.3858 31.0906 38.3858 32.1773V54.608C38.3858 55.5254 38.4576 56.1833 38.5799 56.6118C38.7047 56.9322 38.896 57.1068 39.1625 57.1956C39.5232 57.3158 40.0908 57.3896 40.9003 57.3896H43.4372C44.5279 57.3896 45.4509 57.194 46.2217 56.8219L46.2282 56.8187C47.0384 56.4406 47.7439 55.8863 48.3465 55.1467C48.9523 54.4032 49.4577 53.4827 49.8557 52.3748C50.2551 51.2329 50.5438 49.9388 50.7177 48.489L50.7765 47.999H52.9029L52.8477 48.6057C52.7609 49.5612 52.7165 50.8184 52.7165 52.3828C52.7165 53.0275 52.7312 53.9545 52.7607 55.1662C52.8196 56.3723 52.908 57.6233 53.0258 58.9192L53.0831 59.5503L52.4499 59.5254C50.9456 59.4664 49.247 59.4369 47.3536 59.4369H47.3493L47.3449 59.4368C45.4482 59.4072 43.76 59.3924 42.28 59.3924H39.5652C38.4723 59.3924 37.2749 59.4071 35.9729 59.4367L35.9666 59.4369H35.9603C34.6887 59.4369 33.3874 59.4516 32.0561 59.4812L32.05 59.4814H32.0438C30.7425 59.4814 29.501 59.4962 28.3192 59.5257L27.749 59.54V57.5558L28.2717 57.5241C29.237 57.4656 29.8961 57.3505 30.2908 57.2025L30.2958 57.2006L30.3009 57.1988C30.6268 57.0838 30.8274 56.873 30.9292 56.5064L30.933 56.4928L30.9375 56.4794C31.0865 56.0323 31.1759 55.3039 31.1759 54.252V32.1773C31.1759 31.0906 31.0854 30.3695 30.9406 29.9592L30.9343 29.9413L30.9292 29.923C30.8274 29.5563 30.6268 29.3455 30.3009 29.2305L30.2818 29.2238L30.2631 29.2156C29.8883 29.0516 29.2484 28.935 28.2885 28.9059L27.749 28.8896V26.8808L28.3276 26.9039C29.0656 26.9334 30.0122 26.963 31.1679 26.9927C32.3197 27.0222 33.561 27.037 34.8921 27.037C36.1041 27.037 37.3011 27.0222 38.4832 26.9926C39.6686 26.963 40.645 26.9334 41.413 26.9039L41.9907 26.8817ZM52.2047 55.1866C52.175 53.9701 52.1602 53.0355 52.1602 52.3828C52.1602 51.0927 52.1902 50.0023 52.2501 49.1116C52.2632 48.9166 52.2777 48.7312 52.2937 48.5553H51.2701C51.0921 50.0388 50.7954 51.374 50.38 52.5608C49.9646 53.7179 49.4305 54.697 48.7778 55.4981C48.125 56.2992 47.3536 56.9075 46.4635 57.3229C45.6031 57.7382 44.5943 57.9459 43.4372 57.9459H40.9003C40.0696 57.9459 39.4317 57.8718 38.9866 57.7234C38.5416 57.5751 38.23 57.2635 38.052 56.7888C37.9037 56.2844 37.8295 55.5575 37.8295 54.608V32.1773C37.8295 31.0795 37.9185 30.2784 38.0965 29.7741C38.2745 29.24 38.6157 28.884 39.1201 28.7059C39.6542 28.4982 40.4256 28.3796 41.4344 28.3499V27.4598C41.2596 27.4665 41.0742 27.4732 40.8781 27.4799C40.2087 27.5029 39.415 27.5258 38.4971 27.5488C37.3103 27.5785 36.1086 27.5933 34.8921 27.5933C33.557 27.5933 32.3108 27.5785 31.1537 27.5488C30.268 27.5261 29.504 27.5034 28.8617 27.4807C28.6648 27.4737 28.4793 27.4667 28.3053 27.4598V28.3499C29.2845 28.3796 30.0114 28.4982 30.4861 28.7059C30.9905 28.884 31.3169 29.24 31.4652 29.7741C31.6432 30.2784 31.7323 31.0795 31.7323 32.1773V54.252C31.7323 55.3201 31.6432 56.1212 31.4652 56.6553C31.3169 57.1893 30.9905 57.5454 30.4861 57.7234C30.0114 57.9014 29.2845 58.0201 28.3053 58.0794V58.9696C28.4894 58.965 28.6748 58.9607 28.8617 58.9568C29.88 58.9356 30.9407 58.925 32.0438 58.925C33.3789 58.8954 34.6844 58.8805 35.9603 58.8805C37.2657 58.8509 38.4674 58.836 39.5652 58.836H42.28C43.7635 58.836 45.4547 58.8509 47.3536 58.8805C49.0217 58.8805 50.5409 58.9034 51.9113 58.9492C52.101 58.9556 52.2878 58.9623 52.4717 58.9696C52.4547 58.7824 52.4383 58.5962 52.4225 58.4109C52.3281 57.3035 52.2555 56.2287 52.2047 55.1866Z" fill="#E8CF82"/>
</svg>
