<svg width="229" height="81" viewBox="0 0 229 81" fill="none" xmlns="http://www.w3.org/2000/svg">
<rect width="81.2222" height="80.1096" rx="40.0548" fill="#1F2937"/>
<path fill-rule="evenodd" clip-rule="evenodd" d="M40.6114 78.997C62.1186 78.997 79.5536 61.562 79.5536 40.0548C79.5536 18.5476 62.1186 1.11263 40.6114 1.11263C19.1043 1.11263 1.66927 18.5476 1.66927 40.0548C1.66927 61.562 19.1043 78.997 40.6114 78.997ZM40.6114 80.1096C62.7331 80.1096 80.6662 62.1764 80.6662 40.0548C80.6662 17.9331 62.7331 0 40.6114 0C18.4898 0 0.556641 17.9331 0.556641 40.0548C0.556641 62.1764 18.4898 80.1096 40.6114 80.1096Z" fill="#E8CF82"/>
<path fill-rule="evenodd" clip-rule="evenodd" d="M40.6111 72.8775C58.7386 72.8775 73.4338 58.1823 73.4338 40.0548C73.4338 21.9273 58.7386 7.23211 40.6111 7.23211C22.4836 7.23211 7.78841 21.9273 7.78841 40.0548C7.78841 58.1823 22.4836 72.8775 40.6111 72.8775ZM40.6111 73.9901C59.353 73.9901 74.5464 58.7967 74.5464 40.0548C74.5464 21.3128 59.353 6.11948 40.6111 6.11948C21.8691 6.11948 6.67578 21.3128 6.67578 40.0548C6.67578 58.7967 21.8691 73.9901 40.6111 73.9901Z" fill="#E8CF82"/>
<path fill-rule="evenodd" clip-rule="evenodd" d="M40.6111 67.8706C55.9733 67.8706 68.4269 55.4171 68.4269 40.0548C68.4269 24.6925 55.9733 12.239 40.6111 12.239C25.2488 12.239 12.7953 24.6925 12.7953 40.0548C12.7953 55.4171 25.2488 67.8706 40.6111 67.8706ZM40.6111 68.9833C56.5878 68.9833 69.5395 56.0315 69.5395 40.0548C69.5395 24.0781 56.5878 11.1263 40.6111 11.1263C24.6343 11.1263 11.6826 24.0781 11.6826 40.0548C11.6826 56.0315 24.6343 68.9833 40.6111 68.9833Z" fill="#E8CF82"/>
<mask id="mask0_5258_1308" style="mask-type:alpha" maskUnits="userSpaceOnUse" x="9" y="10" width="62" height="62">
<path fill-rule="evenodd" clip-rule="evenodd" d="M40.0554 66.758C54.4959 66.758 66.2023 55.0516 66.2023 40.6111C66.2023 26.1706 54.4959 14.4642 40.0554 14.4642C25.6149 14.4642 13.9085 26.1706 13.9085 40.6111C13.9085 55.0516 25.6149 66.758 40.0554 66.758ZM40.0554 71.2085C56.9539 71.2085 70.6528 57.5096 70.6528 40.6111C70.6528 23.7126 56.9539 10.0137 40.0554 10.0137C23.1569 10.0137 9.45801 23.7126 9.45801 40.6111C9.45801 57.5096 23.1569 71.2085 40.0554 71.2085Z" fill="#E8CF82"/>
</mask>
<g mask="url(#mask0_5258_1308)">
<path fill-rule="evenodd" clip-rule="evenodd" d="M40.0553 77.8843L40.0553 3.33789L44.5059 3.33789L44.5059 77.8843L40.0553 77.8843Z" fill="#E8CF82"/>
<path fill-rule="evenodd" clip-rule="evenodd" d="M2.78268 40.6111H77.3291V45.0616H2.78268V40.6111Z" fill="#E8CF82"/>
</g>
<mask id="mask1_5258_1308" style="mask-type:alpha" maskUnits="userSpaceOnUse" x="10" y="8" width="62" height="63">
<path fill-rule="evenodd" clip-rule="evenodd" d="M41.1677 65.6454C55.6082 65.6454 67.3146 53.939 67.3146 39.4985C67.3146 25.0579 55.6082 13.3516 41.1677 13.3516C26.7272 13.3516 15.0208 25.0579 15.0208 39.4985C15.0208 53.939 26.7272 65.6454 41.1677 65.6454ZM41.1677 70.0959C58.0662 70.0959 71.7651 56.397 71.7651 39.4985C71.7651 22.6 58.0662 8.90106 41.1677 8.90106C24.2692 8.90106 10.5703 22.6 10.5703 39.4985C10.5703 56.397 24.2692 70.0959 41.1677 70.0959Z" fill="#E8CF82"/>
</mask>
<g mask="url(#mask1_5258_1308)">
<path fill-rule="evenodd" clip-rule="evenodd" d="M41.1676 76.7717L41.1676 2.22525L45.6182 2.22525L45.6182 76.7717L41.1676 76.7717Z" fill="#E8CF82"/>
<path fill-rule="evenodd" clip-rule="evenodd" d="M3.89499 39.4985H78.4414V43.949H3.89499V39.4985Z" fill="#E8CF82"/>
</g>
<mask id="mask2_5258_1308" style="mask-type:alpha" maskUnits="userSpaceOnUse" x="9" y="10" width="62" height="62">
<path fill-rule="evenodd" clip-rule="evenodd" d="M40.0554 66.758C54.4959 66.758 66.2023 55.0516 66.2023 40.6111C66.2023 26.1706 54.4959 14.4642 40.0554 14.4642C25.6149 14.4642 13.9085 26.1706 13.9085 40.6111C13.9085 55.0516 25.6149 66.758 40.0554 66.758ZM40.0554 71.2085C56.9539 71.2085 70.6528 57.5096 70.6528 40.6111C70.6528 23.7126 56.9539 10.0137 40.0554 10.0137C23.1569 10.0137 9.45801 23.7126 9.45801 40.6111C9.45801 57.5096 23.1569 71.2085 40.0554 71.2085Z" fill="#E8CF82"/>
</mask>
<g mask="url(#mask2_5258_1308)">
<path fill-rule="evenodd" clip-rule="evenodd" d="M41.724 80.6659L41.724 6.11948L42.2803 6.11948L42.2803 80.6659L41.724 80.6659Z" fill="#1F2937"/>
<path fill-rule="evenodd" clip-rule="evenodd" d="M4.45163 43.3927H78.998V43.949H4.45163V43.3927Z" fill="#1F2937"/>
</g>
<mask id="mask3_5258_1308" style="mask-type:alpha" maskUnits="userSpaceOnUse" x="10" y="8" width="62" height="63">
<path fill-rule="evenodd" clip-rule="evenodd" d="M41.1677 65.6454C55.6082 65.6454 67.3146 53.939 67.3146 39.4985C67.3146 25.0579 55.6082 13.3516 41.1677 13.3516C26.7272 13.3516 15.0208 25.0579 15.0208 39.4985C15.0208 53.939 26.7272 65.6454 41.1677 65.6454ZM41.1677 70.0959C58.0662 70.0959 71.7651 56.397 71.7651 39.4985C71.7651 22.6 58.0662 8.90106 41.1677 8.90106C24.2692 8.90106 10.5703 22.6 10.5703 39.4985C10.5703 56.397 24.2692 70.0959 41.1677 70.0959Z" fill="#E8CF82"/>
</mask>
<g mask="url(#mask3_5258_1308)">
<path fill-rule="evenodd" clip-rule="evenodd" d="M42.8363 79.5533L42.8363 5.00684L43.3926 5.00684L43.3926 79.5533L42.8363 79.5533Z" fill="#1F2937"/>
<path fill-rule="evenodd" clip-rule="evenodd" d="M5.56393 42.28H80.1104V42.8364H5.56393V42.28Z" fill="#1F2937"/>
</g>
<path fill-rule="evenodd" clip-rule="evenodd" d="M42.7869 21.6964L43.0099 21.8715C43.5864 22.3244 44.4266 23.3153 44.8992 24.4289C45.1368 24.9888 45.2958 25.6132 45.2562 26.2358C45.234 26.5844 45.15 26.9214 44.9945 27.2348C45.3621 27.2475 45.7713 27.2698 46.1664 27.3053C46.5196 27.337 46.8667 27.3798 47.165 27.4372C47.4297 27.4881 47.6879 27.5559 47.8782 27.6555C48.7586 27.8618 50.1247 28.1458 51.4118 28.3392C52.066 28.4374 52.6948 28.5115 53.2267 28.5408C53.6562 28.5644 53.9993 28.557 54.237 28.5198C54.4312 28.0554 54.8138 27.5712 55.3197 27.3083C55.9424 26.9846 56.7263 27.0087 57.5323 27.7209L57.615 27.794L57.6513 27.9081C57.8545 28.5463 57.9278 29.5361 57.4234 30.3789C56.9132 31.2316 55.8894 31.8062 54.1357 31.8062C52.3654 31.8062 50.5319 31.3797 48.8974 30.9995C48.5323 30.9146 48.1772 30.832 47.835 30.757C46.8856 30.5489 46.04 30.3993 45.329 30.3993C44.8503 30.3993 44.4582 30.4675 44.1463 30.6115C44.354 30.8613 44.5388 31.1855 44.6173 31.5741C44.7341 32.1522 44.5985 32.77 44.1324 33.3724C44.2082 33.4255 44.2827 33.4823 44.3538 33.5422C44.564 33.719 44.7866 33.9575 44.8975 34.2536C44.9562 34.4101 44.9869 34.5921 44.9583 34.7865C44.9296 34.9812 44.8467 35.1524 44.7291 35.2974C44.5444 35.5252 44.2575 35.7097 43.8751 35.8642V40.6656C43.9267 40.6864 43.9785 40.709 44.0289 40.7333C44.1611 40.797 44.319 40.8887 44.4351 41.0165C44.4942 41.0815 44.5669 41.1824 44.6009 41.3226C44.6392 41.4809 44.6168 41.6424 44.5454 41.7785C44.5223 41.8225 44.4954 41.8617 44.4663 41.8965C44.6208 42.1098 44.7579 42.3691 44.8196 42.6572C44.8792 42.9354 44.8687 43.2463 44.7296 43.5464C44.6693 43.6766 44.5888 43.7961 44.4894 43.9056C44.553 44.0105 44.6022 44.1425 44.6088 44.302C44.6198 44.565 44.5106 44.7942 44.3573 44.9795C44.2398 45.1215 44.0796 45.2595 43.8751 45.3961V50.3169C44.0139 50.4124 44.1558 50.5255 44.2851 50.6524C44.4705 50.8344 44.6611 51.0752 44.7544 51.3658C44.8582 51.6891 44.831 52.0484 44.611 52.3649C44.498 52.5275 44.341 52.6689 44.1436 52.793L45.4369 54.3167L45.3586 54.4089C46.0962 54.5069 46.8589 54.6335 47.5453 54.7864C48.0055 54.8889 48.4363 55.0043 48.8044 55.1325C49.1666 55.2587 49.4919 55.4052 49.7257 55.5801C49.9305 55.7332 50.2227 56.0327 50.1386 56.4804C50.1013 56.6793 49.9965 56.8348 49.8832 56.9526C49.7683 57.0721 49.6199 57.1789 49.4473 57.2776C48.7694 57.6652 47.4693 58.0632 45.3485 58.4796L45.2322 57.6572C47.3572 57.24 48.5632 56.8564 49.1384 56.5275C49.2729 56.4506 49.3579 56.3848 49.4082 56.3344C49.3928 56.3203 49.3726 56.3035 49.3465 56.284C49.197 56.1722 48.9474 56.0517 48.6038 55.932C48.2661 55.8144 47.8603 55.705 47.4138 55.6056C46.5213 55.4068 45.4862 55.252 44.5497 55.1486L43.8003 55.0658L44.4361 54.3167L42.8663 52.4671L43.4094 52.2538C43.8104 52.0963 43.9914 51.9404 44.0635 51.8367C44.1133 51.765 44.1126 51.7231 44.0926 51.6608C44.0621 51.5658 43.9784 51.4366 43.8321 51.2929C43.6916 51.155 43.5212 51.031 43.363 50.9378L43.1674 50.8226V44.8881L43.363 44.7729C43.6288 44.6163 43.7755 44.4882 43.8506 44.3975C43.8636 44.3818 43.8736 44.3683 43.8812 44.3571C43.8525 44.3338 43.8113 44.3095 43.7632 44.2906L42.9528 43.9724L43.7168 43.5223C43.9588 43.3798 44.0639 43.2432 44.1085 43.147C44.1493 43.0589 44.1565 42.9686 44.1335 42.8612C44.0801 42.6119 43.8732 42.3303 43.6628 42.1443L43.1226 41.667L43.6547 41.458C43.5816 41.4283 43.5059 41.4023 43.4354 41.3815L43.1674 41.3026V35.2435L43.4241 35.1571C43.9022 34.9962 44.1265 34.8336 44.2174 34.7216C44.2572 34.6725 44.2607 34.6463 44.261 34.644C44.2615 34.6412 44.2637 34.6263 44.2502 34.5903C44.2166 34.5008 44.1194 34.3694 43.9425 34.2206C43.7746 34.0793 43.5712 33.9524 43.3819 33.8568L42.8391 33.5827L43.3002 33.1481C43.9381 32.5468 43.9907 32.0729 43.9289 31.7673C43.8563 31.4079 43.5905 31.0907 43.3392 30.913L42.9029 30.6046L43.3002 30.2301C43.8351 29.7259 44.5515 29.5655 45.329 29.5655C46.1107 29.5655 47.0121 29.7286 47.9644 29.9373C48.3226 30.0159 48.6889 30.1009 49.0612 30.1874C50.6935 30.5664 52.4418 30.9725 54.1357 30.9725C55.7786 30.9725 56.5238 30.4354 56.8451 29.8985C57.1467 29.3945 57.1423 28.779 57.0217 28.3151C56.4501 27.8522 55.9671 27.883 55.6053 28.0711C55.1957 28.284 54.9117 28.7142 54.8252 29.02L54.7637 29.2371L54.5753 29.2926C54.2374 29.3921 53.7404 29.4036 53.1938 29.3736C52.6355 29.3429 51.9862 29.2659 51.3223 29.1662C49.9942 28.9666 48.5881 28.673 47.6976 28.4632L47.6512 28.4522L47.6088 28.4273C47.5192 28.3745 47.3329 28.3142 47.0511 28.26C46.7803 28.208 46.4552 28.1674 46.1126 28.1366C45.4278 28.0751 44.694 28.0544 44.2289 28.0544H43.2202L44.0079 27.3121C44.3754 26.9656 44.5249 26.5762 44.5505 26.1734C44.5772 25.7538 44.4709 25.284 44.2662 24.8017C43.9119 23.9668 43.306 23.1953 42.8348 22.7535C41.799 23.8757 41.3712 24.9546 41.2614 25.7746C41.2025 26.2136 41.2348 26.575 41.3083 26.8349C41.3844 27.1038 41.4919 27.2266 41.5566 27.2647L41.3984 28.0544H39.2976C38.3329 28.1978 37.2923 28.4368 36.2558 28.6748C35.7913 28.7815 35.3276 28.888 34.8719 28.9856C34.1388 29.1427 33.4297 29.2756 32.7887 29.3425C32.1516 29.4089 31.5596 29.4127 31.0684 29.2969L31.2071 28.4794C31.6005 28.5721 32.1141 28.5758 32.7264 28.512C33.3348 28.4486 34.0188 28.321 34.7453 28.1654C35.1809 28.0721 35.633 27.9682 36.0914 27.863C37.1472 27.6206 38.236 27.3705 39.2316 27.2239L39.2535 27.2207H40.675C40.6614 27.1806 40.6487 27.1398 40.637 27.0985C40.5226 26.694 40.4885 26.1956 40.5624 25.6446C40.7107 24.5376 41.2949 23.2031 42.5834 21.9019L42.7869 21.6964ZM43.9634 41.3102C43.9637 41.3098 43.9639 41.3096 43.9639 41.3096L43.9634 41.3102ZM49.4552 56.3888C49.4548 56.3888 49.4527 56.3858 49.4505 56.3799C49.4546 56.3858 49.4557 56.3888 49.4552 56.3888Z" fill="#E8CF82"/>
<path fill-rule="evenodd" clip-rule="evenodd" d="M42.6184 21.6964L42.3954 21.8715C41.8189 22.3244 40.9787 23.3153 40.5061 24.4289C40.2685 24.9888 40.1095 25.6132 40.1491 26.2358C40.1713 26.5844 40.2553 26.9214 40.4108 27.2348C40.0431 27.2475 39.6339 27.2698 39.2389 27.3053C38.8857 27.337 38.5386 27.3798 38.2402 27.4372C37.9755 27.4881 37.7173 27.5559 37.527 27.6555C36.6466 27.8618 35.2806 28.1458 33.9934 28.3392C33.3393 28.4374 32.7105 28.5115 32.1785 28.5408C31.7491 28.5644 31.406 28.557 31.1683 28.5198C30.9741 28.0554 30.5915 27.5712 30.0856 27.3083C29.4629 26.9846 28.679 27.0087 27.873 27.7209L27.7903 27.794L27.754 27.9081C27.5508 28.5463 27.4775 29.5361 27.9818 30.3789C28.492 31.2316 29.5159 31.8062 31.2696 31.8062C33.0398 31.8062 34.8734 31.3797 36.5079 30.9995C36.8729 30.9146 37.228 30.832 37.5703 30.757C38.5197 30.5489 39.3653 30.3993 40.0762 30.3993C40.555 30.3993 40.9471 30.4675 41.2589 30.6115C41.0513 30.8613 40.8665 31.1855 40.788 31.5741C40.6712 32.1522 40.8068 32.77 41.2729 33.3724C41.1971 33.4255 41.1226 33.4823 41.0515 33.5422C40.8413 33.719 40.6187 33.9575 40.5077 34.2536C40.4491 34.4101 40.4184 34.5921 40.447 34.7865C40.4757 34.9812 40.5586 35.1524 40.6762 35.2974C40.8608 35.5252 41.1477 35.7097 41.5302 35.8642V40.6656C41.4785 40.6864 41.4268 40.709 41.3763 40.7333C41.2442 40.797 41.0862 40.8887 40.9702 41.0165C40.9111 41.0815 40.8384 41.1824 40.8044 41.3226C40.766 41.4809 40.7885 41.6424 40.8599 41.7785C40.883 41.8225 40.9099 41.8617 40.9389 41.8965C40.7845 42.1098 40.6474 42.3691 40.5856 42.6572C40.5261 42.9354 40.5366 43.2463 40.6757 43.5464C40.7359 43.6766 40.8164 43.7961 40.9158 43.9056C40.8523 44.0105 40.8031 44.1425 40.7965 44.302C40.7855 44.565 40.8947 44.7942 41.048 44.9795C41.1655 45.1215 41.3257 45.2595 41.5302 45.3961V50.3169C41.3914 50.4124 41.2494 50.5255 41.1202 50.6524C40.9348 50.8344 40.7442 51.0752 40.6509 51.3658C40.547 51.6891 40.5743 52.0484 40.7943 52.3649C40.9073 52.5275 41.0642 52.6689 41.2616 52.793L39.9684 54.3167L40.0466 54.4089C39.3091 54.5069 38.5463 54.6335 37.86 54.7864C37.3998 54.8889 36.969 55.0043 36.6009 55.1325C36.2387 55.2587 35.9134 55.4052 35.6796 55.5801C35.4747 55.7332 35.1826 56.0327 35.2666 56.4804C35.304 56.6793 35.4087 56.8348 35.5221 56.9526C35.637 57.0721 35.7854 57.1789 35.9579 57.2776C36.6359 57.6652 37.936 58.0632 40.0568 58.4796L40.1731 57.6572C38.0481 57.24 36.8421 56.8564 36.2669 56.5275C36.1324 56.4506 36.0474 56.3848 35.9971 56.3344C36.0125 56.3203 36.0326 56.3035 36.0588 56.284C36.2083 56.1722 36.4579 56.0517 36.8015 55.932C37.1392 55.8144 37.545 55.705 37.9914 55.6056C38.884 55.4068 39.9191 55.252 40.8556 55.1486L41.605 55.0658L40.9691 54.3167L42.539 52.4671L41.9959 52.2538C41.5948 52.0963 41.4139 51.9404 41.3418 51.8367C41.292 51.765 41.2927 51.7231 41.3127 51.6608C41.3432 51.5658 41.4268 51.4366 41.5732 51.2929C41.7137 51.155 41.884 51.031 42.0422 50.9378L42.2378 50.8226V44.8881L42.0422 44.7729C41.7765 44.6163 41.6297 44.4882 41.5547 44.3975C41.5417 44.3818 41.5317 44.3683 41.5241 44.3571C41.5528 44.3338 41.594 44.3095 41.6421 44.2906L42.4524 43.9724L41.6884 43.5223C41.4465 43.3798 41.3414 43.2432 41.2968 43.147C41.256 43.0589 41.2488 42.9686 41.2718 42.8612C41.3252 42.6119 41.5321 42.3303 41.7425 42.1443L42.2827 41.667L41.7506 41.458C41.8237 41.4283 41.8994 41.4023 41.9698 41.3815L42.2378 41.3026V35.2435L41.9812 35.1571C41.5031 34.9962 41.2788 34.8336 41.1879 34.7216C41.1481 34.6725 41.1446 34.6463 41.1442 34.644C41.1438 34.6412 41.1416 34.6263 41.1551 34.5903C41.1886 34.5008 41.2859 34.3694 41.4628 34.2206C41.6307 34.0793 41.8341 33.9524 42.0234 33.8568L42.5661 33.5827L42.105 33.1481C41.4671 32.5468 41.4146 32.0729 41.4764 31.7673C41.549 31.4079 41.8148 31.0907 42.0661 30.913L42.5024 30.6046L42.105 30.2301C41.5702 29.7259 40.8537 29.5655 40.0762 29.5655C39.2946 29.5655 38.3932 29.7286 37.4408 29.9373C37.0826 30.0159 36.7164 30.1009 36.344 30.1874C34.7118 30.5664 32.9634 30.9725 31.2696 30.9725C29.6267 30.9725 28.8814 30.4354 28.5602 29.8985C28.2586 29.3945 28.263 28.779 28.3836 28.3151C28.9552 27.8522 29.4382 27.883 29.8 28.0711C30.2096 28.284 30.4936 28.7142 30.5801 29.02L30.6415 29.2371L30.83 29.2926C31.1679 29.3921 31.6649 29.4036 32.2115 29.3736C32.7697 29.3429 33.4191 29.2659 34.0829 29.1662C35.4111 28.9666 36.8171 28.673 37.7076 28.4632L37.7541 28.4522L37.7965 28.4273C37.8861 28.3745 38.0724 28.3142 38.3542 28.26C38.6249 28.208 38.95 28.1674 39.2927 28.1366C39.9775 28.0751 40.7112 28.0544 41.1764 28.0544H42.185L41.3974 27.3121C41.0299 26.9656 40.8804 26.5762 40.8548 26.1734C40.828 25.7538 40.9344 25.284 41.139 24.8017C41.4934 23.9668 42.0993 23.1953 42.5704 22.7535C43.6063 23.8757 44.034 24.9546 44.1439 25.7746C44.2027 26.2136 44.1705 26.575 44.0969 26.8349C44.0208 27.1038 43.9134 27.2266 43.8487 27.2647L44.0069 28.0544H46.1077C47.0724 28.1978 48.113 28.4368 49.1494 28.6748C49.614 28.7815 50.0777 28.888 50.5334 28.9856C51.2664 29.1427 51.9756 29.2756 52.6165 29.3425C53.2536 29.4089 53.8457 29.4127 54.3369 29.2969L54.1981 28.4794C53.8048 28.5721 53.2912 28.5758 52.6789 28.512C52.0705 28.4486 51.3865 28.321 50.66 28.1654C50.2244 28.0721 49.7722 27.9682 49.3139 27.863C48.2581 27.6206 47.1692 27.3705 46.1737 27.2239L46.1518 27.2207H44.7302C44.7439 27.1806 44.7566 27.1398 44.7682 27.0985C44.8827 26.694 44.9167 26.1956 44.8429 25.6446C44.6945 24.5376 44.1104 23.2031 42.8219 21.9019L42.6184 21.6964ZM41.4419 41.3102C41.4415 41.3098 41.4414 41.3096 41.4414 41.3096L41.4419 41.3102ZM35.95 56.3888C35.9505 56.3888 35.9526 56.3858 35.9548 56.3799C35.9507 56.3858 35.9496 56.3888 35.95 56.3888Z" fill="#E8CF82"/>
<path d="M41.4347 27.4598V28.3499C40.4259 28.3796 39.6545 28.4982 39.1205 28.7059C38.6161 28.8839 38.2749 29.24 38.0968 29.7741C37.9188 30.2784 37.8298 31.0795 37.8298 32.1773V54.608C37.8298 55.5575 37.904 56.2844 38.0523 56.7888C38.2304 57.2635 38.5419 57.5751 38.9869 57.7234C39.432 57.8718 40.0699 57.9459 40.9007 57.9459H43.4375C44.5946 57.9459 45.6034 57.7382 46.4638 57.3229C47.3539 56.9075 48.1254 56.2992 48.7781 55.4981C49.4309 54.697 49.9649 53.7179 50.3803 52.5608C50.7957 51.374 51.0924 50.0388 51.2704 48.5553H52.294C52.205 49.5344 52.1605 50.8102 52.1605 52.3828C52.1605 53.0355 52.1754 53.9701 52.205 55.1866C52.2644 56.4031 52.3534 57.6641 52.4721 58.9696C50.9589 58.9102 49.2528 58.8805 47.3539 58.8805C45.455 58.8509 43.7638 58.836 42.2803 58.836C41.5683 58.836 40.6633 58.836 39.5655 58.836C38.4677 58.836 37.2661 58.8509 35.9606 58.8805C34.6848 58.8805 33.3793 58.8954 32.0441 58.925C30.7386 58.925 29.4925 58.9399 28.3057 58.9696V58.0794C29.2848 58.0201 30.0117 57.9014 30.4864 57.7234C30.9908 57.5454 31.3172 57.1893 31.4655 56.6553C31.6436 56.1212 31.7326 55.3201 31.7326 54.252V32.1773C31.7326 31.0795 31.6436 30.2784 31.4655 29.7741C31.3172 29.24 30.9908 28.8839 30.4864 28.7059C30.0117 28.4982 29.2848 28.3796 28.3057 28.3499V27.4598C29.0474 27.4894 29.9969 27.5191 31.154 27.5488C32.3111 27.5785 33.5573 27.5933 34.8925 27.5933C36.1089 27.5933 37.3106 27.5785 38.4974 27.5488C39.6842 27.5191 40.6633 27.4894 41.4347 27.4598Z" fill="#E8CF82"/>
<path fill-rule="evenodd" clip-rule="evenodd" d="M41.9907 26.8817V28.8901L41.4508 28.906C40.4648 28.935 39.768 29.0509 39.3218 29.2244L39.3136 29.2276L39.3053 29.2305C38.9724 29.348 38.7513 29.5689 38.6243 29.95L38.6227 29.9546L38.6211 29.9592C38.4763 30.3695 38.3858 31.0906 38.3858 32.1773V54.608C38.3858 55.5254 38.4576 56.1833 38.5799 56.6118C38.7047 56.9322 38.896 57.1068 39.1625 57.1956C39.5232 57.3158 40.0908 57.3896 40.9003 57.3896H43.4372C44.5279 57.3896 45.4509 57.194 46.2217 56.8219L46.2282 56.8187C47.0384 56.4406 47.7439 55.8863 48.3465 55.1467C48.9523 54.4032 49.4577 53.4827 49.8557 52.3748C50.2551 51.2329 50.5438 49.9388 50.7177 48.489L50.7765 47.999H52.9029L52.8477 48.6057C52.7609 49.5612 52.7165 50.8184 52.7165 52.3828C52.7165 53.0275 52.7312 53.9545 52.7607 55.1662C52.8196 56.3723 52.908 57.6233 53.0258 58.9192L53.0831 59.5503L52.4499 59.5254C50.9456 59.4664 49.247 59.4369 47.3536 59.4369H47.3493L47.3449 59.4368C45.4482 59.4072 43.76 59.3924 42.28 59.3924H39.5652C38.4723 59.3924 37.2749 59.4071 35.9729 59.4367L35.9666 59.4369H35.9603C34.6887 59.4369 33.3874 59.4516 32.0561 59.4812L32.05 59.4814H32.0438C30.7425 59.4814 29.501 59.4962 28.3192 59.5257L27.749 59.54V57.5558L28.2717 57.5241C29.237 57.4656 29.8961 57.3505 30.2908 57.2025L30.2958 57.2006L30.3009 57.1988C30.6268 57.0838 30.8274 56.873 30.9292 56.5064L30.933 56.4928L30.9375 56.4794C31.0865 56.0323 31.1759 55.3039 31.1759 54.252V32.1773C31.1759 31.0906 31.0854 30.3695 30.9406 29.9592L30.9343 29.9413L30.9292 29.923C30.8274 29.5563 30.6268 29.3455 30.3009 29.2305L30.2818 29.2238L30.2631 29.2156C29.8883 29.0516 29.2484 28.935 28.2885 28.9059L27.749 28.8896V26.8808L28.3276 26.9039C29.0656 26.9334 30.0122 26.963 31.1679 26.9927C32.3197 27.0222 33.561 27.037 34.8921 27.037C36.1041 27.037 37.3011 27.0222 38.4832 26.9926C39.6686 26.963 40.645 26.9334 41.413 26.9039L41.9907 26.8817ZM52.2047 55.1866C52.175 53.9701 52.1602 53.0355 52.1602 52.3828C52.1602 51.0927 52.1902 50.0023 52.2501 49.1116C52.2632 48.9166 52.2777 48.7312 52.2937 48.5553H51.2701C51.0921 50.0388 50.7954 51.374 50.38 52.5608C49.9646 53.7179 49.4305 54.697 48.7778 55.4981C48.125 56.2992 47.3536 56.9075 46.4635 57.3229C45.6031 57.7382 44.5943 57.9459 43.4372 57.9459H40.9003C40.0696 57.9459 39.4317 57.8718 38.9866 57.7234C38.5416 57.5751 38.23 57.2635 38.052 56.7888C37.9037 56.2844 37.8295 55.5575 37.8295 54.608V32.1773C37.8295 31.0795 37.9185 30.2785 38.0965 29.7741C38.2745 29.24 38.6157 28.884 39.1201 28.7059C39.6542 28.4982 40.4256 28.3796 41.4344 28.3499V27.4598C41.2596 27.4665 41.0742 27.4732 40.8781 27.4799C40.2087 27.5029 39.415 27.5258 38.4971 27.5488C37.3103 27.5785 36.1086 27.5933 34.8921 27.5933C33.557 27.5933 32.3108 27.5785 31.1537 27.5488C30.268 27.5261 29.504 27.5034 28.8617 27.4807C28.6648 27.4737 28.4793 27.4667 28.3053 27.4598V28.3499C29.2845 28.3796 30.0114 28.4982 30.4861 28.7059C30.9905 28.884 31.3169 29.24 31.4652 29.7741C31.6432 30.2785 31.7323 31.0795 31.7323 32.1773V54.252C31.7323 55.3201 31.6432 56.1212 31.4652 56.6553C31.3169 57.1893 30.9905 57.5454 30.4861 57.7234C30.0114 57.9014 29.2845 58.0201 28.3053 58.0794V58.9696C28.4894 58.965 28.6748 58.9607 28.8617 58.9568C29.88 58.9356 30.9407 58.925 32.0438 58.925C33.3789 58.8954 34.6844 58.8805 35.9603 58.8805C37.2657 58.8509 38.4674 58.836 39.5652 58.836H42.28C43.7635 58.836 45.4547 58.8509 47.3536 58.8805C49.0217 58.8805 50.5409 58.9034 51.9113 58.9492C52.101 58.9556 52.2878 58.9623 52.4717 58.9696C52.4547 58.7824 52.4383 58.5962 52.4225 58.4109C52.3281 57.3035 52.2555 56.2287 52.2047 55.1866Z" fill="#E8CF82"/>
<path d="M104.167 33.0628V33.5428C103.623 33.5588 103.207 33.6228 102.919 33.7348C102.647 33.8308 102.463 34.0228 102.367 34.3108C102.271 34.5828 102.223 35.0148 102.223 35.6068V47.7028C102.223 48.2148 102.263 48.6068 102.343 48.8788C102.439 49.1348 102.607 49.3028 102.847 49.3828C103.087 49.4628 103.431 49.5028 103.879 49.5028H105.247C105.871 49.5028 106.415 49.3908 106.879 49.1668C107.359 48.9428 107.775 48.6148 108.127 48.1828C108.479 47.7508 108.767 47.2228 108.991 46.5988C109.215 45.9588 109.375 45.2388 109.471 44.4388H110.023C109.975 44.9668 109.951 45.6548 109.951 46.5028C109.951 46.8548 109.959 47.3588 109.975 48.0148C110.007 48.6708 110.055 49.3508 110.119 50.0548C109.303 50.0228 108.383 50.0068 107.359 50.0068C106.335 49.9908 105.423 49.9828 104.623 49.9828C104.239 49.9828 103.751 49.9828 103.159 49.9828C102.567 49.9828 101.919 49.9908 101.215 50.0068C100.527 50.0068 99.8227 50.0148 99.1027 50.0308C98.3987 50.0308 97.7267 50.0388 97.0867 50.0548V49.5748C97.6147 49.5428 98.0067 49.4788 98.2627 49.3828C98.5347 49.2868 98.7107 49.0948 98.7907 48.8068C98.8867 48.5188 98.9347 48.0868 98.9347 47.5108V35.6068C98.9347 35.0148 98.8867 34.5828 98.7907 34.3108C98.7107 34.0228 98.5347 33.8308 98.2627 33.7348C98.0067 33.6228 97.6147 33.5588 97.0867 33.5428V33.0628C97.4867 33.0788 97.9987 33.0948 98.6227 33.1108C99.2467 33.1268 99.9187 33.1348 100.639 33.1348C101.295 33.1348 101.943 33.1268 102.583 33.1108C103.223 33.0948 103.751 33.0788 104.167 33.0628ZM123.356 37.3108C124.764 37.3108 125.868 37.7348 126.668 38.5828C127.468 39.4308 127.868 40.7828 127.868 42.6388H119.78L119.756 42.1828H125.084C125.116 41.3988 125.068 40.6788 124.94 40.0228C124.812 39.3508 124.604 38.8148 124.316 38.4148C124.044 38.0148 123.684 37.8148 123.236 37.8148C122.628 37.8148 122.1 38.1748 121.652 38.8948C121.204 39.5988 120.924 40.7588 120.812 42.3748L120.908 42.5188C120.876 42.7268 120.852 42.9508 120.836 43.1908C120.836 43.4308 120.836 43.6708 120.836 43.9108C120.836 45.0148 120.996 45.9268 121.316 46.6468C121.636 47.3668 122.052 47.8948 122.564 48.2308C123.076 48.5668 123.604 48.7348 124.148 48.7348C124.516 48.7348 124.892 48.6788 125.276 48.5668C125.66 48.4548 126.036 48.2468 126.404 47.9428C126.772 47.6388 127.108 47.2068 127.412 46.6468L127.868 46.8388C127.692 47.3988 127.396 47.9588 126.98 48.5188C126.58 49.0628 126.06 49.5108 125.42 49.8628C124.78 50.2148 124.028 50.3908 123.164 50.3908C122.076 50.3908 121.116 50.1508 120.284 49.6708C119.452 49.1908 118.804 48.4788 118.34 47.5348C117.876 46.5748 117.644 45.4068 117.644 44.0308C117.644 42.5748 117.884 41.3508 118.364 40.3588C118.86 39.3668 119.54 38.6148 120.404 38.1028C121.268 37.5748 122.252 37.3108 123.356 37.3108ZM140.065 37.6468V38.1508C139.761 38.1508 139.521 38.2228 139.345 38.3668C139.169 38.5108 139.161 38.7108 139.321 38.9668L145.681 48.3508C145.905 48.6708 146.121 48.9348 146.329 49.1428C146.537 49.3508 146.785 49.4868 147.073 49.5508V50.0548C146.849 50.0388 146.521 50.0228 146.089 50.0068C145.657 49.9748 145.225 49.9588 144.793 49.9588C144.233 49.9588 143.657 49.9748 143.065 50.0068C142.489 50.0228 142.057 50.0388 141.769 50.0548V49.5508C142.089 49.5508 142.337 49.4788 142.513 49.3348C142.689 49.1748 142.689 48.9748 142.513 48.7348L136.153 39.3508C135.881 38.9348 135.649 38.6468 135.457 38.4868C135.265 38.3108 135.033 38.1988 134.761 38.1508V37.6468C135.001 37.6628 135.361 37.6868 135.841 37.7188C136.321 37.7348 136.785 37.7428 137.233 37.7428C137.777 37.7428 138.321 37.7348 138.865 37.7188C139.409 37.6868 139.809 37.6628 140.065 37.6468ZM139.921 44.1028C139.921 44.1028 139.929 44.1508 139.945 44.2468C139.977 44.3428 140.009 44.4468 140.041 44.5588C140.073 44.6548 140.089 44.7028 140.089 44.7028L138.793 46.4068C138.329 46.9988 138.073 47.5268 138.025 47.9908C137.993 48.4548 138.137 48.8228 138.457 49.0948C138.777 49.3668 139.217 49.5268 139.777 49.5748V50.0548C139.489 50.0388 139.137 50.0308 138.721 50.0308C138.321 50.0148 137.929 50.0068 137.545 50.0068C137.161 49.9908 136.841 49.9828 136.585 49.9828C136.217 49.9828 135.889 49.9908 135.601 50.0068C135.329 50.0068 135.073 50.0228 134.833 50.0548V49.5748C135.185 49.4788 135.529 49.2948 135.865 49.0228C136.201 48.7348 136.585 48.3188 137.017 47.7748L139.921 44.1028ZM146.449 37.6468V38.1268C146.129 38.2228 145.785 38.4228 145.417 38.7268C145.049 39.0148 144.673 39.4148 144.289 39.9268L141.577 43.4308C141.577 43.4308 141.561 43.3828 141.529 43.2868C141.513 43.1748 141.489 43.0708 141.457 42.9748C141.441 42.8788 141.433 42.8308 141.433 42.8308L142.873 40.8868C143.273 40.3588 143.521 39.8948 143.617 39.4948C143.713 39.0948 143.649 38.7828 143.425 38.5588C143.201 38.3188 142.801 38.1748 142.225 38.1268V37.6468C142.673 37.6628 143.097 37.6788 143.497 37.6948C143.913 37.7108 144.321 37.7188 144.721 37.7188C145.073 37.7188 145.385 37.7108 145.657 37.6948C145.945 37.6788 146.209 37.6628 146.449 37.6468ZM166.592 33.0628C166.528 33.7188 166.48 34.3588 166.448 34.9828C166.432 35.5908 166.424 36.0548 166.424 36.3748C166.424 36.6788 166.432 36.9748 166.448 37.2628C166.464 37.5348 166.48 37.7668 166.496 37.9588H165.944C165.816 36.8548 165.608 35.9908 165.32 35.3668C165.032 34.7268 164.64 34.2788 164.144 34.0228C163.664 33.7508 163.032 33.6148 162.248 33.6148H160.928C160.448 33.6148 160.08 33.6548 159.824 33.7348C159.568 33.8148 159.392 33.9828 159.296 34.2388C159.216 34.4948 159.176 34.8868 159.176 35.4148V47.7028C159.176 48.2148 159.216 48.6068 159.296 48.8788C159.392 49.1348 159.568 49.3028 159.824 49.3828C160.08 49.4628 160.448 49.5028 160.928 49.5028H162.296C163.112 49.5028 163.792 49.3508 164.336 49.0468C164.896 48.7428 165.344 48.2468 165.68 47.5588C166.016 46.8548 166.264 45.8948 166.424 44.6788H166.976C166.928 45.1748 166.904 45.8148 166.904 46.5988C166.904 46.9348 166.912 47.4228 166.928 48.0628C166.96 48.7028 167.008 49.3668 167.072 50.0548C166.256 50.0228 165.336 50.0068 164.312 50.0068C163.288 49.9908 162.376 49.9828 161.576 49.9828C161.208 49.9828 160.72 49.9828 160.112 49.9828C159.52 49.9828 158.872 49.9908 158.168 50.0068C157.48 50.0068 156.776 50.0148 156.056 50.0308C155.352 50.0308 154.68 50.0388 154.04 50.0548V49.5748C154.568 49.5428 154.96 49.4788 155.216 49.3828C155.488 49.2868 155.664 49.0948 155.744 48.8068C155.84 48.5188 155.888 48.0868 155.888 47.5108V35.6068C155.888 35.0148 155.84 34.5828 155.744 34.3108C155.664 34.0228 155.488 33.8308 155.216 33.7348C154.96 33.6228 154.568 33.5588 154.04 33.5428V33.0628C154.68 33.0788 155.352 33.0948 156.056 33.1108C156.776 33.1108 157.48 33.1188 158.168 33.1348C158.872 33.1348 159.52 33.1348 160.112 33.1348C160.72 33.1348 161.208 33.1348 161.576 33.1348C162.312 33.1348 163.144 33.1348 164.072 33.1348C165.016 33.1188 165.856 33.0948 166.592 33.0628ZM162.728 41.2708C162.728 41.2708 162.728 41.3508 162.728 41.5108C162.728 41.6708 162.728 41.7508 162.728 41.7508H158.456C158.456 41.7508 158.456 41.6708 158.456 41.5108C158.456 41.3508 158.456 41.2708 158.456 41.2708H162.728ZM163.424 38.1028C163.36 39.0148 163.328 39.7108 163.328 40.1908C163.344 40.6708 163.352 41.1108 163.352 41.5108C163.352 41.9108 163.36 42.3508 163.376 42.8308C163.392 43.3108 163.432 44.0068 163.496 44.9188H162.944C162.864 44.3748 162.736 43.8628 162.56 43.3828C162.4 42.8868 162.136 42.4948 161.768 42.2068C161.416 41.9028 160.904 41.7508 160.232 41.7508V41.2708C160.728 41.2708 161.128 41.1668 161.432 40.9588C161.752 40.7508 162.008 40.4868 162.2 40.1668C162.392 39.8308 162.536 39.4868 162.632 39.1348C162.744 38.7668 162.824 38.4228 162.872 38.1028H163.424ZM179.312 31.2628V47.8228C179.312 48.4948 179.432 48.9508 179.672 49.1908C179.928 49.4308 180.352 49.5508 180.944 49.5508V50.0548C180.656 50.0388 180.216 50.0228 179.624 50.0068C179.048 49.9748 178.456 49.9588 177.848 49.9588C177.256 49.9588 176.648 49.9748 176.024 50.0068C175.416 50.0228 174.96 50.0388 174.656 50.0548V49.5508C175.248 49.5508 175.664 49.4308 175.904 49.1908C176.16 48.9508 176.288 48.4948 176.288 47.8228V34.1428C176.288 33.4228 176.176 32.8948 175.952 32.5588C175.728 32.2068 175.296 32.0308 174.656 32.0308V31.5268C175.168 31.5748 175.664 31.5988 176.144 31.5988C176.752 31.5988 177.32 31.5748 177.848 31.5268C178.376 31.4628 178.864 31.3748 179.312 31.2628ZM191.041 31.5268C191.617 31.5268 192.089 31.6868 192.457 32.0068C192.825 32.3268 193.009 32.7508 193.009 33.2788C193.009 33.8068 192.825 34.2308 192.457 34.5508C192.089 34.8708 191.617 35.0308 191.041 35.0308C190.465 35.0308 189.993 34.8708 189.625 34.5508C189.257 34.2308 189.073 33.8068 189.073 33.2788C189.073 32.7508 189.257 32.3268 189.625 32.0068C189.993 31.6868 190.465 31.5268 191.041 31.5268ZM192.721 37.3828V47.8228C192.721 48.4948 192.841 48.9508 193.081 49.1908C193.337 49.4308 193.761 49.5508 194.353 49.5508V50.0548C194.065 50.0388 193.625 50.0228 193.033 50.0068C192.441 49.9748 191.841 49.9588 191.233 49.9588C190.641 49.9588 190.041 49.9748 189.433 50.0068C188.825 50.0228 188.369 50.0388 188.065 50.0548V49.5508C188.657 49.5508 189.073 49.4308 189.313 49.1908C189.569 48.9508 189.697 48.4948 189.697 47.8228V40.2868C189.697 39.5508 189.577 39.0148 189.337 38.6788C189.113 38.3268 188.689 38.1508 188.065 38.1508V37.6468C188.577 37.6948 189.073 37.7188 189.553 37.7188C190.145 37.7188 190.705 37.6948 191.233 37.6468C191.777 37.5828 192.273 37.4948 192.721 37.3828ZM205.984 33.7108V37.6708H209.056V38.1508H205.984V47.7028C205.984 48.2788 206.088 48.6868 206.296 48.9268C206.504 49.1668 206.8 49.2868 207.184 49.2868C207.552 49.2868 207.888 49.1508 208.192 48.8788C208.496 48.5908 208.768 48.1188 209.008 47.4628L209.44 47.6548C209.2 48.4388 208.824 49.0948 208.312 49.6228C207.816 50.1348 207.112 50.3908 206.2 50.3908C205.656 50.3908 205.192 50.3188 204.808 50.1748C204.44 50.0468 204.12 49.8548 203.848 49.5988C203.496 49.2308 203.256 48.7908 203.128 48.2788C203.016 47.7668 202.96 47.0868 202.96 46.2388V38.1508H200.848V37.6708H202.96V34.3348C203.536 34.3188 204.072 34.2628 204.568 34.1668C205.064 34.0708 205.536 33.9188 205.984 33.7108ZM221.887 37.3108C223.295 37.3108 224.399 37.7348 225.199 38.5828C225.999 39.4308 226.399 40.7828 226.399 42.6388H218.311L218.287 42.1828H223.615C223.647 41.3988 223.599 40.6788 223.471 40.0228C223.343 39.3508 223.135 38.8148 222.847 38.4148C222.575 38.0148 222.215 37.8148 221.767 37.8148C221.159 37.8148 220.631 38.1748 220.183 38.8948C219.735 39.5988 219.455 40.7588 219.343 42.3748L219.439 42.5188C219.407 42.7268 219.383 42.9508 219.367 43.1908C219.367 43.4308 219.367 43.6708 219.367 43.9108C219.367 45.0148 219.527 45.9268 219.847 46.6468C220.167 47.3668 220.583 47.8948 221.095 48.2308C221.607 48.5668 222.135 48.7348 222.679 48.7348C223.047 48.7348 223.423 48.6788 223.807 48.5668C224.191 48.4548 224.567 48.2468 224.935 47.9428C225.303 47.6388 225.639 47.2068 225.943 46.6468L226.399 46.8388C226.223 47.3988 225.927 47.9588 225.511 48.5188C225.111 49.0628 224.591 49.5108 223.951 49.8628C223.311 50.2148 222.559 50.3908 221.695 50.3908C220.607 50.3908 219.647 50.1508 218.815 49.6708C217.983 49.1908 217.335 48.4788 216.871 47.5348C216.407 46.5748 216.175 45.4068 216.175 44.0308C216.175 42.5748 216.415 41.3508 216.895 40.3588C217.391 39.3668 218.071 38.6148 218.935 38.1028C219.799 37.5748 220.783 37.3108 221.887 37.3108Z" fill="#1F2937"/>
</svg>
